<svg width="120" height="48" viewBox="0 0 120 48" fill="none" xmlns="http://www.w3.org/2000/svg">
<rect width="120" height="48" fill="#042B0B"/>
<path d="M106.859 33.1677C108.419 33.1677 109.565 31.9956 109.565 30.5149C109.565 29.0343 108.419 27.8622 106.859 27.8622C105.3 27.8622 104.122 29.0343 104.122 30.5149C104.122 31.9956 105.3 33.1677 106.859 33.1677ZM94.0623 30.2682C92.3114 30.2682 91.2291 29.4045 91.2291 28.0165C91.2291 26.7517 92.1204 26.0114 93.6802 26.0114H95.9405C96.7044 26.0114 97.5003 25.8881 97.9141 25.5487V26.5975C97.9141 28.7875 96.3861 30.2682 94.0623 30.2682ZM92.6298 33.2294C95.1446 33.2294 97.1502 32.2423 98.0415 30.5458C98.0415 31.502 98.1051 32.1807 98.2325 32.7975H102.434C102.212 31.8413 102.116 30.5149 102.116 28.8184V22.2174C102.116 18.4541 99.5695 16.3566 94.8899 16.3566C90.4014 16.3566 87.5364 18.2691 87.2499 21.4771L91.3564 21.7855C91.5474 20.2432 92.8526 19.3178 94.7626 19.3178C96.7044 19.3178 97.946 20.3358 97.946 21.9706C97.946 22.8959 97.4685 23.3587 96.4498 23.3587H92.7253C88.9371 23.3587 86.7087 24.9935 86.7087 28.0781C86.7087 31.1936 89.0643 33.2294 92.6298 33.2294ZM79.9284 32.7975H84.3214V11.2053H79.9284V32.7975ZM72.2246 32.7975H76.6176V11.2053H72.2246V32.7975ZM57.3898 23.1736C57.6445 20.9835 59.1406 19.6263 61.4327 19.6263C63.8202 19.6263 65.2846 21.1686 65.3482 23.1736H57.3898ZM52.9649 24.8084C52.9649 29.8981 56.4985 33.1985 61.5919 33.1985C65.6984 33.1985 68.5634 31.1936 69.5503 27.9239L65.4437 27.5846C64.8389 29.1269 63.4382 29.8672 61.6874 29.8672C59.1725 29.8672 57.4535 28.2632 57.358 25.8881H69.805C70.2188 20.274 66.8762 16.3566 61.5282 16.3566C56.5303 16.3566 52.9649 19.7188 52.9649 24.8084ZM42.5556 19.7497C45.0704 19.7497 46.5666 21.6621 46.5666 24.7776C46.5666 27.893 45.0704 29.8055 42.5874 29.8055C40.0725 29.8055 38.5127 27.8313 38.5127 24.7776C38.5127 21.693 40.0725 19.7497 42.5556 19.7497ZM44.0518 16.3875C41.5687 16.3875 39.4996 17.5596 38.7356 19.3487V16.7576H34.3425V38.1956H38.7356V30.2065C39.4996 31.9956 41.5687 33.1369 44.0518 33.1369C48.222 33.1369 51.1189 29.8363 51.1189 24.7776C51.1189 19.7188 48.222 16.3875 44.0518 16.3875ZM31.7006 21.9706C31.7006 15.3079 27.1802 10.8043 20.3996 10.8043C13.5872 10.8043 9.13049 15.3079 9.13049 21.9706C9.13049 28.6642 13.5872 33.1985 20.3996 33.1985C27.212 33.1985 31.7006 28.6333 31.7006 21.9706ZM13.9374 21.9706C13.9374 17.2511 16.4841 14.5059 20.3996 14.5059C24.347 14.5059 26.8619 17.2511 26.8619 21.9706C26.8619 26.69 24.347 29.4662 20.3996 29.4662C16.4841 29.4662 13.9374 26.69 13.9374 21.9706Z" fill="white"/>
</svg>
